<?xml version="1.0" encoding="UTF-8"?>
<!DOCTYPE svg PUBLIC "-//W3C//DTD SVG 1.1//EN" "http://www.w3.org/Graphics/SVG/1.1/DTD/svg11.dtd">
<!-- Creator: CorelDRAW -->
<svg xmlns="http://www.w3.org/2000/svg" xml:space="preserve" width="5cm" height="5.3676cm" version="1.1" style="shape-rendering:geometricPrecision; text-rendering:geometricPrecision; image-rendering:optimizeQuality; fill-rule:evenodd; clip-rule:evenodd"
viewBox="0 0 81.13 87.1"
 xmlns:xlink="http://www.w3.org/1999/xlink"
 xmlns:xodm="http://www.corel.com/coreldraw/odm/2003">
 <defs>
  <style type="text/css">
   <![CDATA[
    .fil0 {fill:#B6DAE0;fill-rule:nonzero}
   ]]>
  </style>
 </defs>
 <g id="Layer_x0020_1">
  <metadata id="CorelCorpID_0Corel-Layer"/>
  <path fill="#FFFFFF" d="M9.36 0c-5.15,0 -9.36,4.2 -9.36,9.33l0 55.99c0,5.13 4.22,9.33 9.36,9.33l28.08 0 0 -6.22 -28.08 0c-1.76,0 -3.12,-1.36 -3.12,-3.11l0 -55.99c0,-1.75 1.37,-3.11 3.12,-3.11l43.68 0c1.76,0 3.12,1.36 3.12,3.11l0 28 6.24 0 0 -28c0,-5.12 -4.22,-9.33 -9.36,-9.33l-43.68 0zm3.12 18.66l0 6.22 37.45 0 0 -6.22 -37.45 0zm0 18.66l0 6.22 6.24 0 0 -6.22 -6.24 0zm12.48 0l0 6.22 12.49 0 0 -6.22 -12.49 0zm18.73 6.22l0 6.22 6.24 0 0 6.22c0,3.72 1.7,7.05 4.34,9.33 -2.63,2.29 -4.34,5.61 -4.34,9.33l0 6.22 -6.24 0 0 6.22 37.44 0 0 -6.22 -6.24 0 0 -6.22c0,-3.72 -1.71,-7.05 -4.34,-9.33 2.63,-2.28 4.34,-5.61 4.34,-9.33l0 -6.22 6.24 0 0 -6.22 -37.44 0zm-31.21 6.22l0 6.22 6.24 0 0 -6.22 -6.24 0zm12.48 0l0 6.22 12.49 0 0 -6.22 -12.49 0zm31.21 0l12.48 0 0 6.22c0,3.48 -2.75,6.22 -6.24,6.22 -3.49,0 -6.24,-2.74 -6.24,-6.22l0 -6.22zm6.24 18.66c3.49,0 6.24,2.74 6.24,6.22l0 6.22 -12.48 0 0 -6.22c0,-3.47 2.75,-6.22 6.24,-6.22z"/>
 </g>
</svg>
